<?xml version="1.0" encoding="UTF-8" standalone="no"?>
<svg width="25px" height="25px" viewBox="0 0 25 25" version="1.1" xmlns="http://www.w3.org/2000/svg" xmlns:xlink="http://www.w3.org/1999/xlink" xmlns:sketch="http://www.bohemiancoding.com/sketch/ns">
    <!-- Generator: Sketch 3.3.3 (12081) - http://www.bohemiancoding.com/sketch -->
    <title>Bitmap Copy 5 + Rectangle 62 Copy Copy Copy + Oval 22 + instagram19 Copy Copy Copy Copy Copy Copy Copy Copy Copy Copy Copy</title>
    <desc>Created with Sketch.</desc>
    <defs></defs>
    <g id="Page-1" stroke="none" stroke-width="1" fill="none" fill-rule="evenodd" sketch:type="MSPage">
        <g id="Bitmap-Copy-5-+-Rectangle-62-Copy-Copy-Copy-+-Oval-22-+-instagram19-Copy-Copy-Copy-Copy-Copy-Copy-Copy-Copy-Copy-Copy-Copy" sketch:type="MSLayerGroup">
            <g id="Oval-22-+-instagram19" sketch:type="MSShapeGroup">
                <rect id="Rectangle-108-Copy-3" fill="#57ACED" x="0" y="0" width="25" height="25"></rect>
                <path d="M5.81348536,17.6080163 C5.46153127,17.5124076 5.42592593,17.0954293 5.42592593,17.0954293 L8.05409965,10.665567 C8.16858951,10.3854659 8.75731609,10.3876826 8.93718952,10.6688919 C9.58906962,11.6880238 10.8928295,13.7262877 10.8928295,13.7262877 L13.5529091,8.97133197 C13.6658738,8.76940489 14.1887417,8.78701738 14.3372109,8.9977507 C14.8655473,9.74765738 15.9222199,11.2474708 15.9222199,11.2474708 L18.5027357,6.58229988 C18.5027357,6.58229988 18.8662673,6.30783129 19.1762768,6.48614915 C19.4862864,6.66446701 19.4199723,7.04892537 19.4199723,7.04892537 L16.3675771,12.6259134 C16.2765184,12.7922855 15.8539171,12.7813149 15.733675,12.6094575 L14.0032503,10.1362271 L11.2946935,15.0120618 C11.1894357,15.2015427 10.7194772,15.1824812 10.5897558,14.9834697 C9.91725579,13.9517568 8.57225571,11.8883311 8.57225571,11.8883311 L6.46349201,17.3852906 C6.46349201,17.3852906 6.16543944,17.7036251 5.81348536,17.6080163 L5.81348536,17.6080163 Z" id="Shape" stroke="#FFFFFF" stroke-width="0.5" fill="#FFFFFF"></path>
            </g>
        </g>
    </g>
</svg>