<?xml version="1.0" encoding="UTF-8" standalone="no"?>
<svg width="25px" height="25px" viewBox="0 0 25 25" version="1.1" xmlns="http://www.w3.org/2000/svg" xmlns:xlink="http://www.w3.org/1999/xlink" xmlns:sketch="http://www.bohemiancoding.com/sketch/ns">
    <!-- Generator: Sketch 3.3.3 (12081) - http://www.bohemiancoding.com/sketch -->
    <title>Bitmap Copy 5 + Rectangle 62 Copy Copy Copy + Oval 22 + instagram19 Copy Copy Copy Copy Copy Copy Copy Copy Copy Copy Copy Copy Copy Copy</title>
    <desc>Created with Sketch.</desc>
    <defs></defs>
    <g id="Page-1" stroke="none" stroke-width="1" fill="none" fill-rule="evenodd" sketch:type="MSPage">
        <g id="Bitmap-Copy-5-+-Rectangle-62-Copy-Copy-Copy-+-Oval-22-+-instagram19-Copy-Copy-Copy-Copy-Copy-Copy-Copy-Copy-Copy-Copy-Copy-Copy-Copy-Copy" sketch:type="MSLayerGroup">
            <g id="Oval-22-+-instagram19" sketch:type="MSShapeGroup">
                <rect id="Rectangle-108-Copy-5" fill="#57ACED" x="0" y="0" width="25" height="25"></rect>
                <g id="Group" transform="translate(5.500000, 6.925926)" fill="#FFFFFF">
                    <path d="M0.145833333,0.641666667 L0.145833333,10.6458333 C0.145833333,10.9083333 0.379166667,11.0833333 0.6125,11.0541667 C2.33333333,10.8208333 4.08333333,10.8791667 5.80416667,11.55 C6.06666667,11.6666667 6.3875,11.4625 6.3875,11.1708333 L6.3875,1.225 C6.3875,1.05 6.3,0.904166667 6.15416667,0.845833333 C4.25833333,-2.59375854e-14 2.3625,-0.0291666667 0.495833333,0.233333333 C0.291666667,0.2625 0.145833333,0.4375 0.145833333,0.641666667 L0.145833333,0.641666667 Z" id="Shape"></path>
                    <path d="M13.8541667,0.641666667 L13.8541667,10.6458333 C13.8541667,10.9083333 13.6208333,11.0833333 13.3875,11.0541667 C11.6666667,10.8208333 9.91666667,10.8791667 8.19583333,11.55 C7.93333333,11.6666667 7.6125,11.4625 7.6125,11.1708333 L7.6125,1.225 C7.6125,1.05 7.7,0.904166667 7.84583333,0.845833333 C9.7125,-2.5049407e-14 11.6083333,-0.0291666667 13.475,0.233333333 C13.7083333,0.2625 13.8541667,0.4375 13.8541667,0.641666667 L13.8541667,0.641666667 Z" id="Shape"></path>
                </g>
            </g>
        </g>
    </g>
</svg>