<?xml version="1.0" encoding="UTF-8" standalone="no"?>
<svg width="25px" height="25px" viewBox="0 0 25 25" version="1.1" xmlns="http://www.w3.org/2000/svg" xmlns:xlink="http://www.w3.org/1999/xlink" xmlns:sketch="http://www.bohemiancoding.com/sketch/ns">
    <!-- Generator: Sketch 3.3.3 (12081) - http://www.bohemiancoding.com/sketch -->
    <title>Bitmap Copy 5 + Rectangle 62 Copy Copy Copy + Oval 22 + instagram19 Copy Copy Copy Copy Copy Copy Copy Copy Copy Copy Copy Copy Copy Copy Copy</title>
    <desc>Created with Sketch.</desc>
    <defs></defs>
    <g id="Page-1" stroke="none" stroke-width="1" fill="none" fill-rule="evenodd" sketch:type="MSPage">
        <g id="Bitmap-Copy-5-+-Rectangle-62-Copy-Copy-Copy-+-Oval-22-+-instagram19-Copy-Copy-Copy-Copy-Copy-Copy-Copy-Copy-Copy-Copy-Copy-Copy-Copy-Copy-Copy" sketch:type="MSLayerGroup">
            <g id="Oval-22-+-instagram19" sketch:type="MSShapeGroup">
                <rect id="Rectangle-108-Copy-5" fill="#57ACED" x="0" y="0" width="25" height="25"></rect>
                <path d="M12.0499655,6.50930747 C10.3166322,6.50930747 8.8899655,7.93597413 8.8899655,9.66930747 C8.8899655,10.1893075 9.3299655,10.6293075 9.86329884,10.6293075 C10.4099655,10.6293075 10.8366322,10.1893075 10.8366322,9.66930747 C10.8366322,9.0026408 11.3832988,8.45597413 12.0499655,8.45597413 C12.7032988,8.45597413 13.2366322,9.0026408 13.2366322,9.66930747 C13.2366322,10.2826408 12.9699655,10.5893075 12.4766322,11.1493075 C11.8632988,11.7759741 11.0499655,12.6426408 11.0499655,14.2959741 C11.0499655,14.8559741 11.4899655,15.2826408 12.0366322,15.2826408 C12.5699655,15.2826408 12.9966322,14.8559741 12.9966322,14.2959741 C12.9966322,13.4026408 13.3699655,13.0026408 13.8766322,12.4693075 C14.4499655,11.8426408 15.1566322,11.0826408 15.1566322,9.65597413 C15.1832988,7.93597413 13.7832988,6.50930747 12.0499655,6.50930747 L12.0499655,6.50930747 L12.0499655,6.50930747 Z M12.0499655,16.1626408 C11.3966322,16.1626408 10.8632988,16.6693075 10.8632988,17.3359741 C10.8632988,17.9893075 11.3966322,18.5093075 12.0499655,18.5093075 C12.6766322,18.5093075 13.2232988,17.9893075 13.2232988,17.3359741 C13.2232988,16.6826408 12.6899655,16.1626408 12.0499655,16.1626408 L12.0499655,16.1626408 Z" id="Shape" fill="#FFFFFF"></path>
            </g>
        </g>
    </g>
</svg>