<?xml version="1.0" encoding="UTF-8" standalone="no"?>
<svg width="25px" height="25px" viewBox="0 0 25 25" version="1.1" xmlns="http://www.w3.org/2000/svg" xmlns:xlink="http://www.w3.org/1999/xlink" xmlns:sketch="http://www.bohemiancoding.com/sketch/ns">
    <!-- Generator: Sketch 3.3.3 (12081) - http://www.bohemiancoding.com/sketch -->
    <title>Bitmap Copy 5 + Rectangle 62 Copy Copy Copy + Oval 22 + instagram19 Copy Copy Copy Copy Copy Copy Copy Copy Copy Copy</title>
    <desc>Created with Sketch.</desc>
    <defs></defs>
    <g id="Page-1" stroke="none" stroke-width="1" fill="none" fill-rule="evenodd" sketch:type="MSPage">
        <g id="Bitmap-Copy-5-+-Rectangle-62-Copy-Copy-Copy-+-Oval-22-+-instagram19-Copy-Copy-Copy-Copy-Copy-Copy-Copy-Copy-Copy-Copy" sketch:type="MSLayerGroup">
            <g id="Oval-22-+-instagram19" sketch:type="MSShapeGroup">
                <rect id="Rectangle-108-Copy-2" fill="#57ACED" x="0" y="0" width="25" height="25"></rect>
                <g id="noun_32973" transform="translate(6.425926, 5.873294)" fill="#FFFFFF">
                    <g id="Group">
                        <path d="M3.07797668,2.36842105 C3.01311064,2.36842105 2.96052632,2.42169951 2.96052632,2.48648859 L2.96052632,11.7240377 C2.96052632,11.7892446 3.01444408,11.8421053 3.07797668,11.8421053 L5.211497,11.8421053 C5.27636304,11.8421053 5.32894737,11.7888268 5.32894737,11.7240377 L5.32894737,2.48648859 C5.32894737,2.42128169 5.2750296,2.36842105 5.211497,2.36842105 L3.07797668,2.36842105 L3.07797668,2.36842105 Z M8.99902931,1.18421053 C8.93416327,1.18421053 8.88157895,1.23652847 8.88157895,1.3020808 L8.88157895,11.724235 C8.88157895,11.7893329 8.93549672,11.8421053 8.99902931,11.8421053 L11.1325496,11.8421053 C11.1974157,11.8421053 11.25,11.7897873 11.25,11.724235 L11.25,1.3020808 C11.25,1.23698284 11.1960822,1.18421053 11.1325496,1.18421053 L8.99902931,1.18421053 L8.99902931,1.18421053 Z M6.038503,0 C5.97363696,0 5.92105263,0.0527971618 5.92105263,0.119126676 L5.92105263,11.7229785 C5.92105263,11.7887704 5.9749704,11.8421053 6.038503,11.8421053 L8.17202332,11.8421053 C8.23688936,11.8421053 8.28947368,11.7893081 8.28947368,11.7229785 L8.28947368,0.119126676 C8.28947368,0.0533348289 8.23555592,0 8.17202332,0 L6.038503,0 L6.038503,0 Z M0.117450367,4.73684211 C0.0525843237,4.73684211 0,4.789949 0,4.85423911 L0,11.7247083 C0,11.7895448 0.0539177684,11.8421053 0.117450367,11.8421053 L2.25097069,11.8421053 C2.31583673,11.8421053 2.36842105,11.7889984 2.36842105,11.7247083 L2.36842105,4.85423911 C2.36842105,4.78940253 2.31450328,4.73684211 2.25097069,4.73684211 L0.117450367,4.73684211 L0.117450367,4.73684211 Z" id="Shape"></path>
                    </g>
                </g>
            </g>
        </g>
    </g>
</svg>