<?xml version="1.0" encoding="UTF-8" standalone="no"?>
<svg width="25px" height="25px" viewBox="0 0 25 25" version="1.1" xmlns="http://www.w3.org/2000/svg" xmlns:xlink="http://www.w3.org/1999/xlink" xmlns:sketch="http://www.bohemiancoding.com/sketch/ns">
    <!-- Generator: Sketch 3.3.3 (12081) - http://www.bohemiancoding.com/sketch -->
    <title>Bitmap Copy 5 + Rectangle 62 Copy Copy Copy + Oval 22 + instagram19 Copy Copy Copy Copy Copy Copy Copy</title>
    <desc>Created with Sketch.</desc>
    <defs></defs>
    <g id="Page-1" stroke="none" stroke-width="1" fill="none" fill-rule="evenodd" sketch:type="MSPage">
        <g id="Bitmap-Copy-5-+-Rectangle-62-Copy-Copy-Copy-+-Oval-22-+-instagram19-Copy-Copy-Copy-Copy-Copy-Copy-Copy" sketch:type="MSLayerGroup">
            <g id="Oval-22-+-instagram19" sketch:type="MSShapeGroup">
                <rect id="Rectangle-108-Copy-6" fill="#57ACED" x="0" y="0" width="25" height="25"></rect>
                <rect id="Rectangle-98" fill="#FFFFFF" x="4" y="5" width="16" height="15"></rect>
                <g id="instagram19" transform="translate(0.472041, 1.000000)" fill="#54ABED">
                    <g id="Group">
                        <path d="M11.7184096,13.7944444 C13.011329,13.7944444 14.0653958,12.7625 14.0653958,11.4935185 C14.0653958,10.9925926 13.8982934,10.5300926 13.6216776,10.1523148 C13.1954248,9.57268519 12.5024691,9.19259259 11.7198257,9.19259259 C10.9367102,9.19259259 10.2442266,9.57222222 9.81702977,10.1518519 C9.53946986,10.5296296 9.37378359,10.9921296 9.37331155,11.4930556 C9.37189542,12.762037 10.4250182,13.7944444 11.7184096,13.7944444 L11.7184096,13.7944444 Z" id="Shape"></path>
                        <path d="M16.841467,8.6787037 L16.841467,6.75 L16.841467,6.46296296 L16.5473856,6.46388889 L14.5818083,6.46990741 L14.5893609,8.68611111 L16.841467,8.6787037 Z" id="Shape"></path>
                        <path d="M11.7188816,0 C5.25711692,0 0,5.15892613 0,11.5 C0,17.8406107 5.25711692,23 11.7188816,23 C18.1801743,23 23.4377633,17.8406107 23.4377633,11.5 C23.4377633,5.15892613 18.1811184,0 11.7188816,0 L11.7188816,0 Z M18.3836238,10.15804 L18.3836238,15.5129099 C18.3836238,16.9076774 17.2280683,18.0411867 15.8076979,18.0411867 L7.63006536,18.0411867 C6.20922295,18.0411867 5.05413943,16.9076774 5.05413943,15.5129099 L5.05413943,10.15804 L5.05413943,7.4880166 C5.05413943,6.09371224 6.20922295,4.96020301 7.63006536,4.96020301 L15.8072259,4.96020301 C17.2280683,4.96020301 18.3836238,6.09371224 18.3836238,7.4880166 L18.3836238,10.15804 L18.3836238,10.15804 Z" id="Shape"></path>
                        <path d="M15.3644517,11.4935185 C15.3644517,13.4643519 13.7293028,15.0689815 11.7188816,15.0689815 C9.70846042,15.0689815 8.07378359,13.4643519 8.07378359,11.4935185 C8.07378359,11.0194444 8.17007988,10.5662037 8.34190269,10.1523148 L6.35225127,10.1523148 L6.35225127,15.5041667 C6.35225127,16.1958333 6.9248366,16.7560185 7.62959332,16.7560185 L15.8067538,16.7560185 C16.5105664,16.7560185 17.0840959,16.1958333 17.0840959,15.5041667 L17.0840959,10.1523148 L15.0935004,10.1523148 C15.2667393,10.5662037 15.3644517,11.0194444 15.3644517,11.4935185 L15.3644517,11.4935185 Z" id="Shape"></path>
                    </g>
                </g>
            </g>
        </g>
    </g>
</svg>