<?xml version="1.0" encoding="UTF-8" standalone="no"?>
<svg width="25px" height="25px" viewBox="0 0 25 25" version="1.1" xmlns="http://www.w3.org/2000/svg" xmlns:xlink="http://www.w3.org/1999/xlink" xmlns:sketch="http://www.bohemiancoding.com/sketch/ns">
    <!-- Generator: Sketch 3.3.3 (12081) - http://www.bohemiancoding.com/sketch -->
    <title>Bitmap Copy 5 + Rectangle 62 Copy Copy Copy + Oval 22 + instagram19 Copy Copy Copy Copy Copy Copy Copy Copy</title>
    <desc>Created with Sketch.</desc>
    <defs></defs>
    <g id="Page-1" stroke="none" stroke-width="1" fill="none" fill-rule="evenodd" sketch:type="MSPage">
        <g id="Bitmap-Copy-5-+-Rectangle-62-Copy-Copy-Copy-+-Oval-22-+-instagram19-Copy-Copy-Copy-Copy-Copy-Copy-Copy-Copy" sketch:type="MSLayerGroup">
            <g id="Oval-22-+-instagram19" sketch:type="MSShapeGroup">
                <rect id="Rectangle-108" fill="#57ACED" x="0" y="0" width="25" height="25"></rect>
                <g id="twitter1" transform="translate(6.425926, 6.759259)" fill="#FFFFFF">
                    <path d="M13.334,1.57541822 C12.8432585,1.79286955 12.3166999,1.94034256 11.7634528,2.00618145 C12.3283557,1.66790203 12.7607747,1.13134342 12.9657205,0.493956754 C12.4358286,0.807225239 11.8509257,1.03469838 11.2277003,1.15801013 C10.7286363,0.625612742 10.0187658,0.294 9.2314007,0.294 C7.72085357,0.294 6.49608033,1.51877324 6.49608033,3.02849249 C6.49608033,3.24261048 6.52024159,3.45173936 6.56690833,3.6517179 C4.29400702,3.5375565 2.2785571,2.44860047 0.929644219,0.793891884 C0.693848627,1.19716052 0.559708974,1.66705235 0.559708974,2.16864359 C0.559708974,3.11764296 1.04295595,3.95498637 1.77615976,4.44487824 C1.32790195,4.42988911 0.906310848,4.30657736 0.537225278,4.10160971 L0.537225278,4.13577098 C0.537225278,5.4605226 1.48038586,6.56614532 2.73097614,6.81777972 C2.50184722,6.8794356 2.26023463,6.91359687 2.01027779,6.91359687 C1.83365441,6.91359687 1.66284803,6.89610229 1.49537499,6.8627689 C1.84363264,7.95006915 2.85346,8.74074583 4.04991076,8.76242342 C3.11424474,9.49562724 1.93446068,9.93137958 0.65304246,9.93137958 C0.432257786,9.93137958 0.214784664,9.91804623 0.000666666667,9.89388497 C1.21127867,10.6712501 2.64851413,11.124497 4.19322254,11.124497 C9.2247776,11.124497 11.9751089,6.95693028 11.9751089,3.34261065 L11.9659368,2.98851421 C12.5033233,2.60522382 12.968226,2.12365441 13.334,1.57541822 L13.334,1.57541822 Z" id="Shape"></path>
                </g>
            </g>
        </g>
    </g>
</svg>