<?xml version="1.0" encoding="UTF-8" standalone="no"?>
<svg width="25px" height="25px" viewBox="0 0 25 25" version="1.1" xmlns="http://www.w3.org/2000/svg" xmlns:xlink="http://www.w3.org/1999/xlink" xmlns:sketch="http://www.bohemiancoding.com/sketch/ns">
    <!-- Generator: Sketch 3.3.3 (12081) - http://www.bohemiancoding.com/sketch -->
    <title>Bitmap Copy 5 + Rectangle 62 Copy Copy Copy + Oval 22 + instagram19 Copy Copy Copy Copy Copy Copy Copy Copy Copy Copy Copy Copy</title>
    <desc>Created with Sketch.</desc>
    <defs></defs>
    <g id="Page-1" stroke="none" stroke-width="1" fill="none" fill-rule="evenodd" sketch:type="MSPage">
        <g id="Bitmap-Copy-5-+-Rectangle-62-Copy-Copy-Copy-+-Oval-22-+-instagram19-Copy-Copy-Copy-Copy-Copy-Copy-Copy-Copy-Copy-Copy-Copy-Copy" sketch:type="MSLayerGroup">
            <g id="Oval-22-+-instagram19" sketch:type="MSShapeGroup">
                <rect id="Rectangle-108-Copy-4" fill="#57ACED" x="0" y="0" width="25" height="25"></rect>
                <g id="Group" transform="translate(7.000000, 6.000000)" fill="#FFFFFF">
                    <path d="M0.0336,5.6634 L0.0336,11.871 C0.0336,12.0234 0.1572,12.147 0.3096,12.147 L11.6904,12.147 C11.8428,12.147 11.9658,12.0234 11.9658,11.871 L11.9658,5.6634 L0.0336,5.6634 L0.0336,5.6634 Z" id="Shape"></path>
                    <path d="M11.9322,4.008 L10.017,4.008 L9.063,5.1576 L11.9322,5.1576 L11.9322,4.008 Z" id="Shape"></path>
                    <path d="M7.7748,4.008 L6.8214,5.1576 L8.496,5.1576 L9.4368,4.008 L7.7748,4.008 Z" id="Shape"></path>
                    <path d="M5.2392,4.008 L4.2858,5.1576 L6.2538,5.1576 L7.1952,4.008 L5.2392,4.008 Z" id="Shape"></path>
                    <path d="M3.1356,4.008 L2.1816,5.1576 L3.7188,5.1576 L4.6602,4.008 L3.1356,4.008 Z" id="Shape"></path>
                    <path d="M1.8306,2.5428 C1.755,2.4132 1.6446,2.2842 1.4922,2.2842 L0.2754,2.2842 C0.1236,2.2842 0,2.4072 0,2.5596 L0,4.008 L0,4.2492 L0,5.1576 L1.6152,5.1576 L2.556,4.008 L2.8614,3.6174 L1.8306,2.5428 L1.8306,2.5428 Z" id="Shape"></path>
                    <path d="M6.8484,1.2678 L8.4342,2.5644 L9.9312,2.3046 L8.3454,1.008 L6.8484,1.2678 Z" id="Shape"></path>
                    <path d="M4.5618,1.6644 L6.1482,2.9616 L7.7148,2.6892 L6.1296,1.3926 L4.5618,1.6644 Z" id="Shape"></path>
                    <path d="M11.9922,1.5708 L11.8548,0.7776 C11.8194,0.5748 11.6748,0.4308 11.5314,0.456 L9.0648,0.8838 L10.6506,2.181 L11.7966,1.9818 C11.94,1.9566 12.027,1.7736 11.9922,1.5708 L11.9922,1.5708 Z" id="Shape"></path>
                    <path d="M3.735,3.3396 L5.4282,3.0858 L3.8424,1.7892 L2.6304,1.9998 C2.589,2.0064 2.5542,2.0298 2.5236,2.0604 L3.735,3.3396 L3.735,3.3396 Z" id="Shape"></path>
                </g>
            </g>
        </g>
    </g>
</svg>