<?xml version="1.0" encoding="UTF-8" standalone="no"?>
<svg width="25px" height="25px" viewBox="0 0 25 25" version="1.1" xmlns="http://www.w3.org/2000/svg" xmlns:xlink="http://www.w3.org/1999/xlink" xmlns:sketch="http://www.bohemiancoding.com/sketch/ns">
    <!-- Generator: Sketch 3.3.3 (12081) - http://www.bohemiancoding.com/sketch -->
    <title>Bitmap Copy 5 + Rectangle 62 Copy Copy Copy + Oval 22 + instagram19 Copy Copy Copy Copy Copy Copy Copy Copy Copy</title>
    <desc>Created with Sketch.</desc>
    <defs></defs>
    <g id="Page-1" stroke="none" stroke-width="1" fill="none" fill-rule="evenodd" sketch:type="MSPage">
        <g id="Bitmap-Copy-5-+-Rectangle-62-Copy-Copy-Copy-+-Oval-22-+-instagram19-Copy-Copy-Copy-Copy-Copy-Copy-Copy-Copy-Copy" sketch:type="MSLayerGroup">
            <g id="Oval-22-+-instagram19" sketch:type="MSShapeGroup">
                <rect id="Rectangle-108-Copy" fill="#57ACED" x="0" y="0" width="25" height="25"></rect>
                <path d="M12.4259098,6.80482665 C10.8302512,6.80482665 9.32855771,7.2964452 8.1974535,8.18911247 C7.05506445,9.09067181 6.42592593,10.2927833 6.42592593,11.5739857 C6.42592593,12.344686 6.66222876,13.1101482 7.1092576,13.7876272 C7.52181752,14.4128209 8.11390034,14.9652612 8.82584832,15.3902701 C8.79299615,15.6203646 8.61609237,16.2937372 7.66541644,17.0962226 C7.61649386,17.1375465 7.59654328,17.2038329 7.61458611,17.2653014 C7.63262893,17.3267375 7.68523768,17.3717476 7.74871092,17.38009 C7.75446652,17.3808337 7.8927302,17.3985855 8.13841013,17.3985855 C8.83894392,17.3985855 10.2705356,17.2594811 12.0206252,16.3324096 C12.1556877,16.3395556 12.2918173,16.3431771 12.4259098,16.3431771 C14.0215683,16.3431771 15.5232295,15.8515585 16.6543983,14.9588913 C17.7967874,14.0573319 18.4259259,12.8552205 18.4259259,11.5739857 C18.4259259,10.2927833 17.7967874,9.09067181 16.6543983,8.18911247 C15.5232618,7.2964452 14.0215683,6.80482665 12.4259098,6.80482665 Z" id="Shape" fill="#FFFFFF"></path>
            </g>
        </g>
    </g>
</svg>