<?xml version="1.0" encoding="UTF-8" standalone="no"?>
<svg width="25px" height="25px" viewBox="0 0 25 25" version="1.1" xmlns="http://www.w3.org/2000/svg" xmlns:xlink="http://www.w3.org/1999/xlink" xmlns:sketch="http://www.bohemiancoding.com/sketch/ns">
    <!-- Generator: Sketch 3.3.3 (12081) - http://www.bohemiancoding.com/sketch -->
    <title>Bitmap Copy 5 + Rectangle 62 Copy Copy Copy + Oval 22 + instagram19 Copy Copy Copy Copy Copy Copy Copy Copy Copy Copy Copy Copy Copy Copy Copy Copy</title>
    <desc>Created with Sketch.</desc>
    <defs></defs>
    <g id="Page-1" stroke="none" stroke-width="1" fill="none" fill-rule="evenodd" sketch:type="MSPage">
        <g id="Bitmap-Copy-5-+-Rectangle-62-Copy-Copy-Copy-+-Oval-22-+-instagram19-Copy-Copy-Copy-Copy-Copy-Copy-Copy-Copy-Copy-Copy-Copy-Copy-Copy-Copy-Copy-Copy" sketch:type="MSLayerGroup">
            <g id="Oval-22-+-instagram19" sketch:type="MSShapeGroup">
                <rect id="Rectangle-108-Copy-5" fill="#57ACED" x="0" y="0" width="25" height="25"></rect>
                <g id="noun_31618" transform="translate(5.000000, 4.909639)" fill="#FFFFFF">
                    <path d="M7.50650602,2.12710843 C10.5189759,2.12710843 12.969759,4.57789157 12.969759,7.59036145 C12.969759,10.6028313 10.5189759,13.0536145 7.50650602,13.0536145 C4.49403614,13.0536145 2.04325301,10.603012 2.04325301,7.59036145 C2.04325301,4.57771084 4.49403614,2.12710843 7.50650602,2.12710843 L7.50650602,2.12710843 Z M7.50650602,0.140421687 C3.39198795,0.140421687 0.0565662651,3.47638554 0.0565662651,7.59036145 C0.0565662651,11.7048795 3.39216867,15.0403012 7.50650602,15.0403012 C11.6208434,15.0403012 14.9564458,11.7048795 14.9564458,7.59036145 C14.9564458,3.47638554 11.6210241,0.140421687 7.50650602,0.140421687 L7.50650602,0.140421687 L7.50650602,0.140421687 Z" id="Shape"></path>
                    <path d="M7.70150602,8.6826506 L4.52710843,7.5623494 L4.85783133,6.6253012 L7.31168675,7.49150602 L9.57957831,4.16512048 L10.400241,4.725 L7.70150602,8.6826506 Z" id="Shape"></path>
                </g>
            </g>
        </g>
    </g>
</svg>