<?xml version="1.0" encoding="UTF-8" standalone="no"?>
<svg width="25px" height="25px" viewBox="0 0 25 25" version="1.1" xmlns="http://www.w3.org/2000/svg" xmlns:xlink="http://www.w3.org/1999/xlink" xmlns:sketch="http://www.bohemiancoding.com/sketch/ns">
    <!-- Generator: Sketch 3.3.3 (12081) - http://www.bohemiancoding.com/sketch -->
    <title>Bitmap Copy 5 + Rectangle 62 Copy Copy Copy + Oval 22 + instagram19 Copy Copy Copy Copy Copy Copy Copy Copy Copy Copy Copy Copy Copy</title>
    <desc>Created with Sketch.</desc>
    <defs></defs>
    <g id="Page-1" stroke="none" stroke-width="1" fill="none" fill-rule="evenodd" sketch:type="MSPage">
        <g id="Bitmap-Copy-5-+-Rectangle-62-Copy-Copy-Copy-+-Oval-22-+-instagram19-Copy-Copy-Copy-Copy-Copy-Copy-Copy-Copy-Copy-Copy-Copy-Copy-Copy" sketch:type="MSLayerGroup">
            <g id="Oval-22-+-instagram19" sketch:type="MSShapeGroup">
                <rect id="Rectangle-108-Copy-5" fill="#57ACED" x="0" y="0" width="25" height="25"></rect>
                <path d="M12.3205282,14.036616 C11.3601925,13.6352817 10.0880227,13.7644487 8.99002005,14.3744502 C7.30668261,15.3121192 6.54218074,17.0751235 7.28268255,18.3124598 C8.02318436,19.5497962 9.98835582,19.7927968 11.6720266,18.8552945 C12.8503628,18.1971262 13.6238647,17.0984569 13.6563648,16.0342876 C13.6666981,13.2541141 13.6615315,10.5487742 13.6615315,7.75943406 C16.0920374,7.75943406 17.5315409,8.70410303 16.9965396,11.0927755 C16.7047055,12.3114452 16.083204,13.3821144 15.3265355,14.1269496 C17.3230404,13.0151136 18.6665437,11.2146092 18.6665437,9.42693813 C18.6665437,7.7602674 17.0512064,6.75359827 15.6598697,6.09359666 C14.9498679,5.75692917 13.9943656,5.26826131 13.6608648,4.42692593 L12.3191948,4.42692593 L12.3205282,14.036616 Z" id="Shape" fill="#FFFFFF"></path>
            </g>
        </g>
    </g>
</svg>